<svg xmlns="http://www.w3.org/2000/svg" xmlns:xlink="http://www.w3.org/1999/xlink" width="500" zoomAndPan="magnify" viewBox="0 0 375 374.999991" height="500" preserveAspectRatio="xMidYMid meet" version="1.2"><defs><clipPath id="1d3889e5b9"><path d="M 112.5 142 L 180 142 L 180 209 L 112.5 209 Z M 112.5 142 "/></clipPath><clipPath id="2eaa82a44c"><path d="M 198 133 L 262.5 133 L 262.5 210 L 198 210 Z M 198 133 "/></clipPath></defs><g id="5a9cdbbee3"><path style=" stroke:none;fill-rule:evenodd;fill:#a4bb22;fill-opacity:1;" d="M 142.167969 132.300781 C 146.855469 132.300781 150.660156 136.117188 150.660156 140.828125 C 150.660156 145.535156 146.855469 149.355469 142.167969 149.355469 C 137.476562 149.355469 133.675781 145.535156 133.675781 140.828125 C 133.675781 136.117188 137.476562 132.300781 142.167969 132.300781 "/><path style=" stroke:none;fill-rule:evenodd;fill:#3bbbd0;fill-opacity:1;" d="M 162.351562 180.175781 C 163.207031 181.660156 164.464844 183.628906 165.398438 185.3125 C 166.332031 186.992188 166.945312 188.386719 166.503906 190.785156 C 166.058594 193.179688 164.5625 196.578125 163.792969 199.707031 C 163.027344 202.835938 162.980469 205.695312 163.511719 207.222656 C 164.039062 208.746094 165.140625 208.941406 166.039062 207.589844 C 166.941406 206.242188 167.644531 203.34375 168.425781 201.539062 C 169.210938 199.738281 170.078125 199.027344 170.871094 199.414062 C 171.667969 199.804688 172.398438 201.292969 173.316406 203.054688 C 174.238281 204.8125 175.351562 206.84375 176.460938 207.828125 C 177.578125 208.808594 178.691406 208.75 179.171875 208.03125 C 179.65625 207.316406 179.507812 205.949219 178.972656 204.039062 C 178.441406 202.132812 177.523438 199.683594 176.859375 197.21875 C 176.195312 194.757812 175.78125 192.28125 176.921875 190.484375 C 178.066406 188.6875 180.761719 187.570312 182.960938 186.195312 C 185.160156 184.824219 186.863281 183.199219 187.214844 182.109375 C 187.570312 181.019531 186.566406 180.460938 184.925781 180.933594 C 183.285156 181.410156 181.003906 182.914062 179.039062 183.964844 C 177.074219 185.019531 175.425781 185.621094 173.996094 185.625 C 172.566406 185.625 171.355469 185.03125 169.941406 183.734375 C 168.527344 182.433594 166.910156 180.433594 165.316406 179.144531 C 163.726562 177.855469 162.164062 177.28125 161.605469 177.488281 C 161.050781 177.699219 161.5 178.695312 162.351562 180.175781 Z M 174.625 173.308594 C 177.613281 173.308594 180.039062 175.746094 180.039062 178.746094 C 180.039062 181.75 177.613281 184.1875 174.625 184.1875 C 171.632812 184.1875 169.207031 181.75 169.207031 178.746094 C 169.207031 175.746094 171.632812 173.308594 174.625 173.308594 "/><path style=" stroke:none;fill-rule:evenodd;fill:#fbbe09;fill-opacity:1;" d="M 188.261719 182.078125 C 188.96875 182.011719 190.207031 182.589844 191.378906 183.476562 C 192.550781 184.367188 193.625 185.632812 195.136719 186.367188 C 204.605469 190.953125 207.179688 181.46875 207.433594 176.460938 C 207.511719 174.925781 207.898438 174.417969 208.097656 173.953125 C 208.296875 173.488281 208.691406 173.132812 209.222656 173.863281 C 209.753906 174.597656 210.417969 176.417969 210.417969 178.617188 C 210.417969 180.8125 209.753906 183.390625 208.957031 185.453125 C 207.742188 188.621094 204.730469 191.511719 208.242188 194.0625 C 209.082031 194.671875 211.25 195.183594 212.011719 195.507812 C 212.777344 195.828125 213.195312 196.027344 212.441406 196.726562 C 211.949219 197.1875 210.953125 197.863281 209.617188 198.53125 C 210.550781 201.09375 211.453125 203.988281 211.589844 205.816406 C 211.746094 207.859375 210.949219 208.570312 210 208.191406 C 209.046875 207.816406 207.941406 206.347656 206.835938 204.417969 C 206.074219 203.082031 205.308594 201.527344 204.53125 200.40625 C 202.753906 200.878906 200.921875 201.230469 199.382812 201.445312 L 199.375 201.449219 C 198.960938 202.214844 198.605469 203.046875 198.191406 203.839844 C 197.503906 205.152344 196.664062 206.347656 195.890625 207.125 C 195.117188 207.902344 194.410156 208.257812 193.769531 208.28125 C 193.125 208.304688 192.550781 207.992188 192.726562 207.171875 C 192.90625 206.347656 193.832031 205.015625 194.519531 202.996094 C 194.652344 202.597656 194.777344 202.175781 194.894531 201.734375 C 194.730469 201.726562 194.585938 201.714844 194.453125 201.703125 C 193.535156 201.601562 193.359375 201.378906 193.359375 201.144531 C 193.359375 200.914062 193.535156 200.667969 193.980469 200.023438 C 195.917969 197.203125 195.886719 194.355469 193.722656 191.671875 C 192.597656 190.273438 190.957031 188.71875 189.785156 187.34375 C 188.617188 185.964844 187.90625 184.765625 187.644531 183.8125 C 187.378906 182.855469 187.554688 182.148438 188.261719 182.078125 Z M 206.628906 178.355469 C 206.761719 177.664062 206.769531 177.320312 206.777344 177.148438 C 206.78125 176.976562 206.78125 176.976562 206.589844 177.367188 C 205.441406 179.667969 204.210938 178.667969 203.207031 177.003906 C 202.257812 175.433594 200.535156 174.375 198.566406 174.375 C 195.578125 174.375 193.152344 176.808594 193.152344 179.8125 C 193.152344 182.816406 195.808594 185.453125 198.800781 185.453125 C 202.949219 185.453125 205.859375 182.339844 206.628906 178.355469 "/><path style=" stroke:none;fill-rule:evenodd;fill:#ea556f;fill-opacity:1;" d="M 184.0625 175.488281 C 182.363281 173.851562 179.980469 171.457031 177.847656 168.960938 C 175.714844 166.464844 173.832031 163.867188 172.472656 161.574219 C 171.113281 159.28125 170.273438 157.292969 170.355469 154.746094 C 170.5625 148.503906 174.65625 144.910156 180.835938 146.515625 C 183.105469 147.105469 184.582031 148.320312 185.722656 149.835938 C 186.867188 151.355469 187.671875 153.175781 188.511719 153.042969 C 189.351562 152.90625 190.222656 150.816406 191.113281 149.296875 C 192.003906 147.78125 192.910156 146.835938 194.355469 146.28125 C 200.519531 143.90625 204.480469 148.757812 205.003906 153.324219 C 205.601562 158.503906 198.386719 168.414062 194.707031 172.046875 C 192.609375 174.125 190.59375 175.640625 189.453125 176.6875 C 188.308594 177.730469 188.039062 178.304688 187.402344 178.152344 C 186.765625 178 185.757812 177.125 184.0625 175.488281 Z M 181.417969 127.394531 C 180.425781 126.613281 178.378906 124.925781 178.285156 123.558594 C 178.15625 121.632812 180.160156 121.113281 181.234375 122.273438 C 181.492188 122.550781 181.6875 122.898438 181.851562 122.851562 C 182.015625 122.8125 182.144531 122.375 182.292969 122.058594 C 182.945312 120.632812 184.804688 121.09375 185.128906 122.574219 C 185.417969 123.894531 183.636719 126.335938 182.75 127.410156 C 182.367188 127.878906 182.121094 127.945312 181.417969 127.394531 Z M 194.238281 128.742188 C 194.335938 127.476562 194.597656 124.828125 195.675781 123.992188 C 197.199219 122.8125 198.742188 124.195312 198.378906 125.742188 C 198.289062 126.109375 198.113281 126.464844 198.242188 126.578125 C 198.367188 126.691406 198.800781 126.5625 199.144531 126.503906 C 200.691406 126.257812 201.339844 128.0625 200.292969 129.160156 C 199.359375 130.136719 196.347656 130.003906 194.964844 129.863281 C 194.367188 129.800781 194.175781 129.632812 194.238281 128.742188 Z M 175.847656 136.734375 C 175.753906 135.472656 175.492188 132.824219 174.414062 131.988281 C 172.890625 130.808594 171.347656 132.191406 171.710938 133.738281 C 171.800781 134.105469 171.976562 134.460938 171.847656 134.574219 C 171.71875 134.683594 171.289062 134.554688 170.945312 134.5 C 169.398438 134.25 168.75 136.058594 169.796875 137.15625 C 170.730469 138.128906 173.742188 138 175.121094 137.855469 C 175.722656 137.792969 175.914062 137.628906 175.847656 136.734375 Z M 192.4375 142.003906 C 191.988281 140.820312 191.109375 138.308594 191.734375 137.09375 C 192.617188 135.375 194.601562 135.972656 194.921875 137.527344 C 194.996094 137.898438 194.988281 138.296875 195.148438 138.34375 C 195.3125 138.390625 195.648438 138.089844 195.9375 137.894531 C 197.230469 137.011719 198.582031 138.371094 198.097656 139.808594 C 197.664062 141.089844 194.878906 142.25 193.566406 142.710938 C 192.996094 142.910156 192.753906 142.839844 192.4375 142.003906 Z M 186.066406 140.253906 C 184.367188 139.675781 180.832031 138.375 180.070312 136.585938 C 178.992188 134.0625 181.433594 132.421875 183.421875 133.472656 C 183.898438 133.722656 184.324219 134.09375 184.523438 133.957031 C 184.722656 133.820312 184.695312 133.179688 184.742188 132.683594 C 184.949219 130.460938 187.65625 130.203125 188.789062 132.039062 C 189.792969 133.675781 188.546875 137.789062 187.859375 139.648438 C 187.5625 140.453125 187.269531 140.664062 186.066406 140.253906 "/><g clip-rule="nonzero" clip-path="url(#1d3889e5b9)"><path style=" stroke:none;fill-rule:evenodd;fill:#a4bb22;fill-opacity:1;" d="M 176.292969 145.558594 C 147.671875 154.824219 153.117188 168.644531 158.515625 192.921875 C 159.53125 197.496094 160.460938 202.292969 160.683594 205.089844 C 160.902344 207.886719 160.417969 208.683594 159.355469 208.332031 C 158.292969 207.976562 156.65625 206.464844 155.464844 204.113281 C 154.269531 201.757812 153.515625 198.558594 152.414062 195.585938 C 151.308594 192.609375 149.847656 189.855469 148.476562 188.191406 C 147.105469 186.523438 145.820312 185.949219 144.296875 186.082031 C 142.769531 186.214844 141 187.058594 139.542969 188.878906 C 138.082031 190.699219 136.933594 193.496094 136.027344 196.160156 C 135.117188 198.828125 134.457031 201.359375 133.636719 203.535156 C 132.820312 205.710938 131.847656 207.53125 130.898438 208.195312 C 129.945312 208.863281 129.015625 208.375 128.550781 206.621094 C 128.085938 204.867188 128.085938 201.847656 128.839844 197.9375 C 129.589844 194.03125 131.09375 189.234375 132.355469 185.4375 C 133.617188 181.640625 134.632812 178.84375 135.25 176.265625 C 135.871094 173.691406 136.09375 171.335938 135.960938 169.273438 C 135.828125 167.207031 135.339844 165.433594 134.148438 164.675781 C 132.953125 163.921875 131.050781 164.1875 128.75 165.207031 C 126.453125 166.230469 123.753906 168.007812 121.230469 169.273438 C 118.710938 170.539062 116.035156 171.359375 114.398438 171.648438 C 112.761719 171.9375 112.496094 170.894531 112.695312 170.050781 C 113.136719 168.183594 121.140625 163.460938 122.980469 162.367188 C 138.464844 153.175781 154.484375 146.082031 172.359375 142.78125 C 174.523438 142.382812 176.382812 142.292969 177.597656 142.539062 C 178.816406 142.78125 179.390625 143.359375 179.257812 143.894531 C 179.125 144.425781 178.285156 144.914062 176.292969 145.558594 "/></g><g clip-rule="nonzero" clip-path="url(#2eaa82a44c)"><path style=" stroke:none;fill-rule:evenodd;fill:#ff6600;fill-opacity:1;" d="M 221.484375 179.546875 C 219.320312 182.921875 216.886719 185.410156 215.757812 186.785156 C 214.628906 188.164062 214.808594 188.429688 216.222656 189.09375 C 217.636719 189.761719 221.78125 191.140625 223.851562 191.582031 C 225.925781 192.019531 225.976562 191.753906 226.605469 191.859375 C 226.269531 194.574219 225.839844 211.070312 229.054688 208.847656 C 229.972656 208.210938 230.664062 206.703125 231.160156 204.113281 C 231.847656 200.503906 231.714844 196.308594 232.257812 192.519531 C 233.546875 192.535156 235.113281 192.460938 236.125 192.359375 C 237.136719 192.257812 239.003906 191.652344 239.734375 191.523438 C 242.113281 195.898438 241.96875 204.449219 244.71875 207.261719 C 248.734375 211.367188 245.234375 191.410156 244.890625 190.226562 C 245.988281 189.804688 245.726562 189.988281 248.109375 188.804688 C 250.492188 187.625 253.109375 186.164062 254.238281 184.808594 C 256.152344 182.507812 247.71875 180.839844 243.507812 174.96875 C 239.296875 169.101562 238.035156 161.253906 246.910156 165.359375 C 249.113281 166.378906 251.699219 168.152344 254.117188 169.414062 C 256.53125 170.679688 259.097656 171.496094 260.667969 171.785156 C 262.234375 172.074219 262.488281 171.03125 262.296875 170.191406 C 261.875 168.324219 254.207031 163.613281 252.441406 162.523438 C 237.597656 153.351562 222.246094 146.269531 205.113281 142.976562 C 203.035156 142.578125 201.253906 142.488281 200.089844 142.734375 C 198.921875 142.976562 198.371094 143.554688 198.5 144.085938 C 198.625 144.617188 199.433594 145.105469 201.339844 145.746094 C 204.625 146.855469 207.386719 148.144531 209.84375 149.273438 C 223.066406 155.351562 229.890625 166.464844 221.484375 179.546875 Z M 244.144531 152.894531 C 245.476562 152.890625 246.789062 152.042969 247.683594 151.003906 C 248.578125 149.964844 249.054688 148.730469 249.132812 147.792969 C 249.214844 146.855469 248.894531 146.210938 248.515625 145.792969 C 248.140625 145.375 247.703125 145.183594 247.484375 145.042969 C 247.265625 144.90625 247.265625 144.816406 247.265625 145.214844 C 247.265625 145.617188 247.265625 146.503906 246.925781 147.125 C 246.589844 147.75 245.914062 148.105469 245.238281 148.15625 C 244.5625 148.203125 243.886719 147.9375 243.589844 146.871094 C 243.058594 144.96875 243.355469 142.554688 242.703125 140.289062 C 242.089844 136.179688 238.5625 133.03125 234.300781 133.03125 C 229.613281 133.03125 225.8125 136.847656 225.8125 141.558594 C 225.8125 145.054688 227.226562 147.375 230.828125 149.273438 C 234.875 151.40625 241.300781 152.902344 244.144531 152.894531 "/></g><g style="fill:#3bbbd0;fill-opacity:0.4;"><g transform="translate(130.977494, 246.943474)"><path style="stroke:none" d="M 23.90625 -4.96875 L 23.90625 0 L 3.171875 0 L 3.171875 -26.78125 L 23.40625 -26.78125 L 23.40625 -21.796875 L 9.328125 -21.796875 L 9.328125 -15.984375 L 21.765625 -15.984375 L 21.765625 -11.171875 L 9.328125 -11.171875 L 9.328125 -4.96875 Z M 23.90625 -4.96875 "/></g></g><g style="fill:#3bbbd0;fill-opacity:0.4;"><g transform="translate(156.643306, 246.943474)"><path style="stroke:none" d="M 5.015625 0.3125 C 3.960938 0.3125 3.078125 -0.046875 2.359375 -0.765625 C 1.648438 -1.484375 1.296875 -2.375 1.296875 -3.4375 C 1.296875 -4.539062 1.648438 -5.425781 2.359375 -6.09375 C 3.078125 -6.769531 3.960938 -7.109375 5.015625 -7.109375 C 6.054688 -7.109375 6.929688 -6.769531 7.640625 -6.09375 C 8.359375 -5.425781 8.71875 -4.539062 8.71875 -3.4375 C 8.71875 -2.375 8.359375 -1.484375 7.640625 -0.765625 C 6.929688 -0.046875 6.054688 0.3125 5.015625 0.3125 Z M 5.015625 0.3125 "/></g></g><g style="fill:#3bbbd0;fill-opacity:0.4;"><g transform="translate(166.664828, 246.943474)"><path style="stroke:none" d="M 28.921875 -26.78125 L 17.328125 0 L 11.203125 0 L -0.34375 -26.78125 L 6.34375 -26.78125 L 14.5 -7.65625 L 22.765625 -26.78125 Z M 28.921875 -26.78125 "/></g></g><g style="fill:#3bbbd0;fill-opacity:0.4;"><g transform="translate(195.199387, 246.943474)"><path style="stroke:none" d="M 11.96875 0.453125 C 9.851562 0.453125 7.804688 0.164062 5.828125 -0.40625 C 3.859375 -0.976562 2.273438 -1.722656 1.078125 -2.640625 L 3.171875 -7.3125 C 4.316406 -6.46875 5.679688 -5.789062 7.265625 -5.28125 C 8.847656 -4.769531 10.429688 -4.515625 12.015625 -4.515625 C 13.773438 -4.515625 15.070312 -4.773438 15.90625 -5.296875 C 16.75 -5.816406 17.171875 -6.507812 17.171875 -7.375 C 17.171875 -8.019531 16.921875 -8.550781 16.421875 -8.96875 C 15.929688 -9.382812 15.296875 -9.71875 14.515625 -9.96875 C 13.734375 -10.226562 12.679688 -10.515625 11.359375 -10.828125 C 9.316406 -11.304688 7.644531 -11.785156 6.34375 -12.265625 C 5.050781 -12.753906 3.9375 -13.535156 3 -14.609375 C 2.070312 -15.679688 1.609375 -17.109375 1.609375 -18.890625 C 1.609375 -20.453125 2.023438 -21.863281 2.859375 -23.125 C 3.703125 -24.382812 4.972656 -25.382812 6.671875 -26.125 C 8.367188 -26.863281 10.441406 -27.234375 12.890625 -27.234375 C 14.597656 -27.234375 16.265625 -27.03125 17.890625 -26.625 C 19.523438 -26.21875 20.957031 -25.628906 22.1875 -24.859375 L 20.265625 -20.15625 C 17.796875 -21.5625 15.328125 -22.265625 12.859375 -22.265625 C 11.117188 -22.265625 9.832031 -21.984375 9 -21.421875 C 8.175781 -20.859375 7.765625 -20.117188 7.765625 -19.203125 C 7.765625 -18.285156 8.242188 -17.601562 9.203125 -17.15625 C 10.160156 -16.707031 11.617188 -16.265625 13.578125 -15.828125 C 15.617188 -15.347656 17.289062 -14.863281 18.59375 -14.375 C 19.894531 -13.894531 21.007812 -13.128906 21.9375 -12.078125 C 22.863281 -11.035156 23.328125 -9.625 23.328125 -7.84375 C 23.328125 -6.3125 22.898438 -4.914062 22.046875 -3.65625 C 21.191406 -2.394531 19.910156 -1.394531 18.203125 -0.65625 C 16.492188 0.0820312 14.414062 0.453125 11.96875 0.453125 Z M 11.96875 0.453125 "/></g></g><g style="fill:#3bbbd0;fill-opacity:0.4;"><g transform="translate(219.602939, 246.943474)"><path style="stroke:none" d="M 11.96875 0.453125 C 9.851562 0.453125 7.804688 0.164062 5.828125 -0.40625 C 3.859375 -0.976562 2.273438 -1.722656 1.078125 -2.640625 L 3.171875 -7.3125 C 4.316406 -6.46875 5.679688 -5.789062 7.265625 -5.28125 C 8.847656 -4.769531 10.429688 -4.515625 12.015625 -4.515625 C 13.773438 -4.515625 15.070312 -4.773438 15.90625 -5.296875 C 16.75 -5.816406 17.171875 -6.507812 17.171875 -7.375 C 17.171875 -8.019531 16.921875 -8.550781 16.421875 -8.96875 C 15.929688 -9.382812 15.296875 -9.71875 14.515625 -9.96875 C 13.734375 -10.226562 12.679688 -10.515625 11.359375 -10.828125 C 9.316406 -11.304688 7.644531 -11.785156 6.34375 -12.265625 C 5.050781 -12.753906 3.9375 -13.535156 3 -14.609375 C 2.070312 -15.679688 1.609375 -17.109375 1.609375 -18.890625 C 1.609375 -20.453125 2.023438 -21.863281 2.859375 -23.125 C 3.703125 -24.382812 4.972656 -25.382812 6.671875 -26.125 C 8.367188 -26.863281 10.441406 -27.234375 12.890625 -27.234375 C 14.597656 -27.234375 16.265625 -27.03125 17.890625 -26.625 C 19.523438 -26.21875 20.957031 -25.628906 22.1875 -24.859375 L 20.265625 -20.15625 C 17.796875 -21.5625 15.328125 -22.265625 12.859375 -22.265625 C 11.117188 -22.265625 9.832031 -21.984375 9 -21.421875 C 8.175781 -20.859375 7.765625 -20.117188 7.765625 -19.203125 C 7.765625 -18.285156 8.242188 -17.601562 9.203125 -17.15625 C 10.160156 -16.707031 11.617188 -16.265625 13.578125 -15.828125 C 15.617188 -15.347656 17.289062 -14.863281 18.59375 -14.375 C 19.894531 -13.894531 21.007812 -13.128906 21.9375 -12.078125 C 22.863281 -11.035156 23.328125 -9.625 23.328125 -7.84375 C 23.328125 -6.3125 22.898438 -4.914062 22.046875 -3.65625 C 21.191406 -2.394531 19.910156 -1.394531 18.203125 -0.65625 C 16.492188 0.0820312 14.414062 0.453125 11.96875 0.453125 Z M 11.96875 0.453125 "/></g></g><g style="fill:#3bbbd0;fill-opacity:1;"><g transform="translate(130.977494, 246.943474)"><path style="stroke:none" d="M 23.90625 -4.96875 L 23.90625 0 L 3.171875 0 L 3.171875 -26.78125 L 23.40625 -26.78125 L 23.40625 -21.796875 L 9.328125 -21.796875 L 9.328125 -15.984375 L 21.765625 -15.984375 L 21.765625 -11.171875 L 9.328125 -11.171875 L 9.328125 -4.96875 Z M 23.90625 -4.96875 "/></g></g><g style="fill:#3bbbd0;fill-opacity:1;"><g transform="translate(156.643306, 246.943474)"><path style="stroke:none" d="M 5.015625 0.3125 C 3.960938 0.3125 3.078125 -0.046875 2.359375 -0.765625 C 1.648438 -1.484375 1.296875 -2.375 1.296875 -3.4375 C 1.296875 -4.539062 1.648438 -5.425781 2.359375 -6.09375 C 3.078125 -6.769531 3.960938 -7.109375 5.015625 -7.109375 C 6.054688 -7.109375 6.929688 -6.769531 7.640625 -6.09375 C 8.359375 -5.425781 8.71875 -4.539062 8.71875 -3.4375 C 8.71875 -2.375 8.359375 -1.484375 7.640625 -0.765625 C 6.929688 -0.046875 6.054688 0.3125 5.015625 0.3125 Z M 5.015625 0.3125 "/></g></g><g style="fill:#3bbbd0;fill-opacity:1;"><g transform="translate(166.664828, 246.943474)"><path style="stroke:none" d="M 28.921875 -26.78125 L 17.328125 0 L 11.203125 0 L -0.34375 -26.78125 L 6.34375 -26.78125 L 14.5 -7.65625 L 22.765625 -26.78125 Z M 28.921875 -26.78125 "/></g></g><g style="fill:#3bbbd0;fill-opacity:1;"><g transform="translate(195.199387, 246.943474)"><path style="stroke:none" d="M 11.96875 0.453125 C 9.851562 0.453125 7.804688 0.164062 5.828125 -0.40625 C 3.859375 -0.976562 2.273438 -1.722656 1.078125 -2.640625 L 3.171875 -7.3125 C 4.316406 -6.46875 5.679688 -5.789062 7.265625 -5.28125 C 8.847656 -4.769531 10.429688 -4.515625 12.015625 -4.515625 C 13.773438 -4.515625 15.070312 -4.773438 15.90625 -5.296875 C 16.75 -5.816406 17.171875 -6.507812 17.171875 -7.375 C 17.171875 -8.019531 16.921875 -8.550781 16.421875 -8.96875 C 15.929688 -9.382812 15.296875 -9.71875 14.515625 -9.96875 C 13.734375 -10.226562 12.679688 -10.515625 11.359375 -10.828125 C 9.316406 -11.304688 7.644531 -11.785156 6.34375 -12.265625 C 5.050781 -12.753906 3.9375 -13.535156 3 -14.609375 C 2.070312 -15.679688 1.609375 -17.109375 1.609375 -18.890625 C 1.609375 -20.453125 2.023438 -21.863281 2.859375 -23.125 C 3.703125 -24.382812 4.972656 -25.382812 6.671875 -26.125 C 8.367188 -26.863281 10.441406 -27.234375 12.890625 -27.234375 C 14.597656 -27.234375 16.265625 -27.03125 17.890625 -26.625 C 19.523438 -26.21875 20.957031 -25.628906 22.1875 -24.859375 L 20.265625 -20.15625 C 17.796875 -21.5625 15.328125 -22.265625 12.859375 -22.265625 C 11.117188 -22.265625 9.832031 -21.984375 9 -21.421875 C 8.175781 -20.859375 7.765625 -20.117188 7.765625 -19.203125 C 7.765625 -18.285156 8.242188 -17.601562 9.203125 -17.15625 C 10.160156 -16.707031 11.617188 -16.265625 13.578125 -15.828125 C 15.617188 -15.347656 17.289062 -14.863281 18.59375 -14.375 C 19.894531 -13.894531 21.007812 -13.128906 21.9375 -12.078125 C 22.863281 -11.035156 23.328125 -9.625 23.328125 -7.84375 C 23.328125 -6.3125 22.898438 -4.914062 22.046875 -3.65625 C 21.191406 -2.394531 19.910156 -1.394531 18.203125 -0.65625 C 16.492188 0.0820312 14.414062 0.453125 11.96875 0.453125 Z M 11.96875 0.453125 "/></g></g><g style="fill:#3bbbd0;fill-opacity:1;"><g transform="translate(219.602939, 246.943474)"><path style="stroke:none" d="M 11.96875 0.453125 C 9.851562 0.453125 7.804688 0.164062 5.828125 -0.40625 C 3.859375 -0.976562 2.273438 -1.722656 1.078125 -2.640625 L 3.171875 -7.3125 C 4.316406 -6.46875 5.679688 -5.789062 7.265625 -5.28125 C 8.847656 -4.769531 10.429688 -4.515625 12.015625 -4.515625 C 13.773438 -4.515625 15.070312 -4.773438 15.90625 -5.296875 C 16.75 -5.816406 17.171875 -6.507812 17.171875 -7.375 C 17.171875 -8.019531 16.921875 -8.550781 16.421875 -8.96875 C 15.929688 -9.382812 15.296875 -9.71875 14.515625 -9.96875 C 13.734375 -10.226562 12.679688 -10.515625 11.359375 -10.828125 C 9.316406 -11.304688 7.644531 -11.785156 6.34375 -12.265625 C 5.050781 -12.753906 3.9375 -13.535156 3 -14.609375 C 2.070312 -15.679688 1.609375 -17.109375 1.609375 -18.890625 C 1.609375 -20.453125 2.023438 -21.863281 2.859375 -23.125 C 3.703125 -24.382812 4.972656 -25.382812 6.671875 -26.125 C 8.367188 -26.863281 10.441406 -27.234375 12.890625 -27.234375 C 14.597656 -27.234375 16.265625 -27.03125 17.890625 -26.625 C 19.523438 -26.21875 20.957031 -25.628906 22.1875 -24.859375 L 20.265625 -20.15625 C 17.796875 -21.5625 15.328125 -22.265625 12.859375 -22.265625 C 11.117188 -22.265625 9.832031 -21.984375 9 -21.421875 C 8.175781 -20.859375 7.765625 -20.117188 7.765625 -19.203125 C 7.765625 -18.285156 8.242188 -17.601562 9.203125 -17.15625 C 10.160156 -16.707031 11.617188 -16.265625 13.578125 -15.828125 C 15.617188 -15.347656 17.289062 -14.863281 18.59375 -14.375 C 19.894531 -13.894531 21.007812 -13.128906 21.9375 -12.078125 C 22.863281 -11.035156 23.328125 -9.625 23.328125 -7.84375 C 23.328125 -6.3125 22.898438 -4.914062 22.046875 -3.65625 C 21.191406 -2.394531 19.910156 -1.394531 18.203125 -0.65625 C 16.492188 0.0820312 14.414062 0.453125 11.96875 0.453125 Z M 11.96875 0.453125 "/></g></g><g style="fill:#ff3131;fill-opacity:1;"><g transform="translate(71.981177, 261.315304)"><path style="stroke:none" d="M 9.203125 -8.515625 L 5.515625 0 L 3.5625 0 L -0.109375 -8.515625 L 2.015625 -8.515625 L 4.609375 -2.4375 L 7.25 -8.515625 Z M 9.203125 -8.515625 "/></g></g><g style="fill:#ff3131;fill-opacity:1;"><g transform="translate(84.124101, 261.315304)"><path style="stroke:none" d="M 1.015625 -8.515625 L 2.984375 -8.515625 L 2.984375 0 L 1.015625 0 Z M 1.015625 -8.515625 "/></g></g><g style="fill:#ff3131;fill-opacity:1;"><g transform="translate(91.182473, 261.315304)"><path style="stroke:none" d="M 7.609375 -1.578125 L 7.609375 0 L 1.015625 0 L 1.015625 -8.515625 L 7.453125 -8.515625 L 7.453125 -6.9375 L 2.96875 -6.9375 L 2.96875 -5.09375 L 6.921875 -5.09375 L 6.921875 -3.546875 L 2.96875 -3.546875 L 2.96875 -1.578125 Z M 7.609375 -1.578125 "/></g></g><g style="fill:#ff3131;fill-opacity:1;"><g transform="translate(102.413098, 261.315304)"><path style="stroke:none" d="M 2.78125 -6.90625 L 0.046875 -6.90625 L 0.046875 -8.515625 L 7.46875 -8.515625 L 7.46875 -6.90625 L 4.75 -6.90625 L 4.75 0 L 2.78125 0 Z M 2.78125 -6.90625 "/></g></g><g style="fill:#ff3131;fill-opacity:1;"><g transform="translate(112.999031, 261.315304)"><path style="stroke:none" d="M 8.828125 -8.515625 L 8.828125 0 L 7.203125 0 L 2.953125 -5.171875 L 2.953125 0 L 1.015625 0 L 1.015625 -8.515625 L 2.640625 -8.515625 L 6.875 -3.34375 L 6.875 -8.515625 Z M 8.828125 -8.515625 "/></g></g><g style="fill:#ff3131;fill-opacity:1;"><g transform="translate(125.896121, 261.315304)"><path style="stroke:none" d="M 6.625 -1.828125 L 2.671875 -1.828125 L 1.90625 0 L -0.109375 0 L 3.6875 -8.515625 L 5.640625 -8.515625 L 9.453125 0 L 7.375 0 Z M 6 -3.328125 L 4.65625 -6.578125 L 3.296875 -3.328125 Z M 6 -3.328125 "/></g></g><g style="fill:#ff3131;fill-opacity:1;"><g transform="translate(138.282324, 261.315304)"><path style="stroke:none" d="M 8.765625 0 L 8.75 -5.109375 L 6.25 -0.90625 L 5.359375 -0.90625 L 2.859375 -5 L 2.859375 0 L 1.015625 0 L 1.015625 -8.515625 L 2.640625 -8.515625 L 5.828125 -3.21875 L 8.96875 -8.515625 L 10.59375 -8.515625 L 10.609375 0 Z M 8.765625 0 "/></g></g><g style="fill:#ff3131;fill-opacity:1;"><g transform="translate(152.967519, 261.315304)"><path style="stroke:none" d=""/></g></g><g style="fill:#ff3131;fill-opacity:1;"><g transform="translate(159.478508, 261.315304)"><path style="stroke:none" d="M 3.8125 0.140625 C 3.132812 0.140625 2.476562 0.0507812 1.84375 -0.125 C 1.21875 -0.3125 0.71875 -0.550781 0.34375 -0.84375 L 1.015625 -2.328125 C 1.378906 -2.054688 1.8125 -1.835938 2.3125 -1.671875 C 2.8125 -1.515625 3.316406 -1.4375 3.828125 -1.4375 C 4.378906 -1.4375 4.789062 -1.519531 5.0625 -1.6875 C 5.332031 -1.851562 5.46875 -2.070312 5.46875 -2.34375 C 5.46875 -2.550781 5.382812 -2.722656 5.21875 -2.859375 C 5.0625 -2.992188 4.859375 -3.097656 4.609375 -3.171875 C 4.367188 -3.253906 4.035156 -3.34375 3.609375 -3.4375 C 2.960938 -3.59375 2.429688 -3.75 2.015625 -3.90625 C 1.609375 -4.0625 1.253906 -4.304688 0.953125 -4.640625 C 0.660156 -4.984375 0.515625 -5.441406 0.515625 -6.015625 C 0.515625 -6.503906 0.644531 -6.945312 0.90625 -7.34375 C 1.175781 -7.75 1.582031 -8.070312 2.125 -8.3125 C 2.664062 -8.550781 3.328125 -8.671875 4.109375 -8.671875 C 4.648438 -8.671875 5.175781 -8.601562 5.6875 -8.46875 C 6.207031 -8.34375 6.664062 -8.15625 7.0625 -7.90625 L 6.453125 -6.421875 C 5.660156 -6.859375 4.875 -7.078125 4.09375 -7.078125 C 3.539062 -7.078125 3.128906 -6.988281 2.859375 -6.8125 C 2.597656 -6.632812 2.46875 -6.398438 2.46875 -6.109375 C 2.46875 -5.816406 2.617188 -5.597656 2.921875 -5.453125 C 3.234375 -5.316406 3.703125 -5.179688 4.328125 -5.046875 C 4.972656 -4.890625 5.5 -4.734375 5.90625 -4.578125 C 6.320312 -4.421875 6.675781 -4.175781 6.96875 -3.84375 C 7.269531 -3.507812 7.421875 -3.0625 7.421875 -2.5 C 7.421875 -2.007812 7.285156 -1.5625 7.015625 -1.15625 C 6.742188 -0.757812 6.335938 -0.441406 5.796875 -0.203125 C 5.253906 0.0234375 4.59375 0.140625 3.8125 0.140625 Z M 3.8125 0.140625 "/></g></g><g style="fill:#ff3131;fill-opacity:1;"><g transform="translate(170.30772, 261.315304)"><path style="stroke:none" d="M 5.140625 0.140625 C 4.253906 0.140625 3.457031 -0.046875 2.75 -0.421875 C 2.039062 -0.804688 1.484375 -1.332031 1.078125 -2 C 0.671875 -2.664062 0.46875 -3.421875 0.46875 -4.265625 C 0.46875 -5.097656 0.671875 -5.847656 1.078125 -6.515625 C 1.484375 -7.179688 2.039062 -7.707031 2.75 -8.09375 C 3.457031 -8.476562 4.253906 -8.671875 5.140625 -8.671875 C 6.023438 -8.671875 6.816406 -8.476562 7.515625 -8.09375 C 8.222656 -7.707031 8.78125 -7.179688 9.1875 -6.515625 C 9.59375 -5.847656 9.796875 -5.097656 9.796875 -4.265625 C 9.796875 -3.421875 9.59375 -2.664062 9.1875 -2 C 8.78125 -1.332031 8.222656 -0.804688 7.515625 -0.421875 C 6.816406 -0.046875 6.023438 0.140625 5.140625 0.140625 Z M 5.140625 -1.53125 C 5.640625 -1.53125 6.09375 -1.644531 6.5 -1.875 C 6.90625 -2.113281 7.222656 -2.4375 7.453125 -2.84375 C 7.679688 -3.257812 7.796875 -3.734375 7.796875 -4.265625 C 7.796875 -4.785156 7.679688 -5.253906 7.453125 -5.671875 C 7.222656 -6.085938 6.90625 -6.410156 6.5 -6.640625 C 6.09375 -6.867188 5.640625 -6.984375 5.140625 -6.984375 C 4.628906 -6.984375 4.171875 -6.867188 3.765625 -6.640625 C 3.367188 -6.410156 3.050781 -6.085938 2.8125 -5.671875 C 2.582031 -5.253906 2.46875 -4.785156 2.46875 -4.265625 C 2.46875 -3.734375 2.582031 -3.257812 2.8125 -2.84375 C 3.050781 -2.4375 3.367188 -2.113281 3.765625 -1.875 C 4.171875 -1.644531 4.628906 -1.53125 5.140625 -1.53125 Z M 5.140625 -1.53125 "/></g></g><g style="fill:#ff3131;fill-opacity:1;"><g transform="translate(183.642718, 261.315304)"><path style="stroke:none" d="M 5.09375 0.140625 C 4.21875 0.140625 3.429688 -0.046875 2.734375 -0.421875 C 2.035156 -0.796875 1.484375 -1.316406 1.078125 -1.984375 C 0.671875 -2.660156 0.46875 -3.421875 0.46875 -4.265625 C 0.46875 -5.109375 0.671875 -5.863281 1.078125 -6.53125 C 1.484375 -7.195312 2.035156 -7.71875 2.734375 -8.09375 C 3.429688 -8.476562 4.21875 -8.671875 5.09375 -8.671875 C 5.832031 -8.671875 6.5 -8.539062 7.09375 -8.28125 C 7.695312 -8.019531 8.203125 -7.644531 8.609375 -7.15625 L 7.34375 -5.984375 C 6.757812 -6.648438 6.046875 -6.984375 5.203125 -6.984375 C 4.671875 -6.984375 4.195312 -6.867188 3.78125 -6.640625 C 3.375 -6.410156 3.050781 -6.085938 2.8125 -5.671875 C 2.582031 -5.253906 2.46875 -4.785156 2.46875 -4.265625 C 2.46875 -3.734375 2.582031 -3.257812 2.8125 -2.84375 C 3.050781 -2.4375 3.375 -2.113281 3.78125 -1.875 C 4.195312 -1.644531 4.671875 -1.53125 5.203125 -1.53125 C 6.046875 -1.53125 6.757812 -1.867188 7.34375 -2.546875 L 8.609375 -1.375 C 8.203125 -0.882812 7.695312 -0.507812 7.09375 -0.25 C 6.5 0.0078125 5.832031 0.140625 5.09375 0.140625 Z M 5.09375 0.140625 "/></g></g><g style="fill:#ff3131;fill-opacity:1;"><g transform="translate(195.627508, 261.315304)"><path style="stroke:none" d="M 1.015625 -8.515625 L 2.984375 -8.515625 L 2.984375 0 L 1.015625 0 Z M 1.015625 -8.515625 "/></g></g><g style="fill:#ff3131;fill-opacity:1;"><g transform="translate(202.68588, 261.315304)"><path style="stroke:none" d="M 6.625 -1.828125 L 2.671875 -1.828125 L 1.90625 0 L -0.109375 0 L 3.6875 -8.515625 L 5.640625 -8.515625 L 9.453125 0 L 7.375 0 Z M 6 -3.328125 L 4.65625 -6.578125 L 3.296875 -3.328125 Z M 6 -3.328125 "/></g></g><g style="fill:#ff3131;fill-opacity:1;"><g transform="translate(215.072083, 261.315304)"><path style="stroke:none" d="M 1.015625 -8.515625 L 2.984375 -8.515625 L 2.984375 -1.609375 L 7.25 -1.609375 L 7.25 0 L 1.015625 0 Z M 1.015625 -8.515625 "/></g></g><g style="fill:#ff3131;fill-opacity:1;"><g transform="translate(225.487717, 261.315304)"><path style="stroke:none" d=""/></g></g><g style="fill:#ff3131;fill-opacity:1;"><g transform="translate(231.998706, 261.315304)"><path style="stroke:none" d="M 3.8125 0.140625 C 3.132812 0.140625 2.476562 0.0507812 1.84375 -0.125 C 1.21875 -0.3125 0.71875 -0.550781 0.34375 -0.84375 L 1.015625 -2.328125 C 1.378906 -2.054688 1.8125 -1.835938 2.3125 -1.671875 C 2.8125 -1.515625 3.316406 -1.4375 3.828125 -1.4375 C 4.378906 -1.4375 4.789062 -1.519531 5.0625 -1.6875 C 5.332031 -1.851562 5.46875 -2.070312 5.46875 -2.34375 C 5.46875 -2.550781 5.382812 -2.722656 5.21875 -2.859375 C 5.0625 -2.992188 4.859375 -3.097656 4.609375 -3.171875 C 4.367188 -3.253906 4.035156 -3.34375 3.609375 -3.4375 C 2.960938 -3.59375 2.429688 -3.75 2.015625 -3.90625 C 1.609375 -4.0625 1.253906 -4.304688 0.953125 -4.640625 C 0.660156 -4.984375 0.515625 -5.441406 0.515625 -6.015625 C 0.515625 -6.503906 0.644531 -6.945312 0.90625 -7.34375 C 1.175781 -7.75 1.582031 -8.070312 2.125 -8.3125 C 2.664062 -8.550781 3.328125 -8.671875 4.109375 -8.671875 C 4.648438 -8.671875 5.175781 -8.601562 5.6875 -8.46875 C 6.207031 -8.34375 6.664062 -8.15625 7.0625 -7.90625 L 6.453125 -6.421875 C 5.660156 -6.859375 4.875 -7.078125 4.09375 -7.078125 C 3.539062 -7.078125 3.128906 -6.988281 2.859375 -6.8125 C 2.597656 -6.632812 2.46875 -6.398438 2.46875 -6.109375 C 2.46875 -5.816406 2.617188 -5.597656 2.921875 -5.453125 C 3.234375 -5.316406 3.703125 -5.179688 4.328125 -5.046875 C 4.972656 -4.890625 5.5 -4.734375 5.90625 -4.578125 C 6.320312 -4.421875 6.675781 -4.175781 6.96875 -3.84375 C 7.269531 -3.507812 7.421875 -3.0625 7.421875 -2.5 C 7.421875 -2.007812 7.285156 -1.5625 7.015625 -1.15625 C 6.742188 -0.757812 6.335938 -0.441406 5.796875 -0.203125 C 5.253906 0.0234375 4.59375 0.140625 3.8125 0.140625 Z M 3.8125 0.140625 "/></g></g><g style="fill:#ff3131;fill-opacity:1;"><g transform="translate(242.827918, 261.315304)"><path style="stroke:none" d="M 7.609375 -1.578125 L 7.609375 0 L 1.015625 0 L 1.015625 -8.515625 L 7.453125 -8.515625 L 7.453125 -6.9375 L 2.96875 -6.9375 L 2.96875 -5.09375 L 6.921875 -5.09375 L 6.921875 -3.546875 L 2.96875 -3.546875 L 2.96875 -1.578125 Z M 7.609375 -1.578125 "/></g></g><g style="fill:#ff3131;fill-opacity:1;"><g transform="translate(254.058542, 261.315304)"><path style="stroke:none" d="M 5.09375 0.140625 C 4.21875 0.140625 3.429688 -0.046875 2.734375 -0.421875 C 2.035156 -0.796875 1.484375 -1.316406 1.078125 -1.984375 C 0.671875 -2.660156 0.46875 -3.421875 0.46875 -4.265625 C 0.46875 -5.109375 0.671875 -5.863281 1.078125 -6.53125 C 1.484375 -7.195312 2.035156 -7.71875 2.734375 -8.09375 C 3.429688 -8.476562 4.21875 -8.671875 5.09375 -8.671875 C 5.832031 -8.671875 6.5 -8.539062 7.09375 -8.28125 C 7.695312 -8.019531 8.203125 -7.644531 8.609375 -7.15625 L 7.34375 -5.984375 C 6.757812 -6.648438 6.046875 -6.984375 5.203125 -6.984375 C 4.671875 -6.984375 4.195312 -6.867188 3.78125 -6.640625 C 3.375 -6.410156 3.050781 -6.085938 2.8125 -5.671875 C 2.582031 -5.253906 2.46875 -4.785156 2.46875 -4.265625 C 2.46875 -3.734375 2.582031 -3.257812 2.8125 -2.84375 C 3.050781 -2.4375 3.375 -2.113281 3.78125 -1.875 C 4.195312 -1.644531 4.671875 -1.53125 5.203125 -1.53125 C 6.046875 -1.53125 6.757812 -1.867188 7.34375 -2.546875 L 8.609375 -1.375 C 8.203125 -0.882812 7.695312 -0.507812 7.09375 -0.25 C 6.5 0.0078125 5.832031 0.140625 5.09375 0.140625 Z M 5.09375 0.140625 "/></g></g><g style="fill:#ff3131;fill-opacity:1;"><g transform="translate(266.043344, 261.315304)"><path style="stroke:none" d="M 4.796875 0.140625 C 3.578125 0.140625 2.628906 -0.191406 1.953125 -0.859375 C 1.273438 -1.535156 0.9375 -2.5 0.9375 -3.75 L 0.9375 -8.515625 L 2.90625 -8.515625 L 2.90625 -3.828125 C 2.90625 -2.296875 3.539062 -1.53125 4.8125 -1.53125 C 5.425781 -1.53125 5.894531 -1.710938 6.21875 -2.078125 C 6.539062 -2.453125 6.703125 -3.035156 6.703125 -3.828125 L 6.703125 -8.515625 L 8.65625 -8.515625 L 8.65625 -3.75 C 8.65625 -2.5 8.316406 -1.535156 7.640625 -0.859375 C 6.960938 -0.191406 6.015625 0.140625 4.796875 0.140625 Z M 4.796875 0.140625 "/></g></g><g style="fill:#ff3131;fill-opacity:1;"><g transform="translate(278.697144, 261.315304)"><path style="stroke:none" d="M 6.4375 0 L 4.796875 -2.375 L 2.984375 -2.375 L 2.984375 0 L 1.015625 0 L 1.015625 -8.515625 L 4.703125 -8.515625 C 5.453125 -8.515625 6.101562 -8.390625 6.65625 -8.140625 C 7.21875 -7.890625 7.648438 -7.53125 7.953125 -7.0625 C 8.253906 -6.601562 8.40625 -6.054688 8.40625 -5.421875 C 8.40625 -4.796875 8.25 -4.253906 7.9375 -3.796875 C 7.632812 -3.335938 7.203125 -2.984375 6.640625 -2.734375 L 8.5625 0 Z M 6.40625 -5.421875 C 6.40625 -5.898438 6.25 -6.265625 5.9375 -6.515625 C 5.632812 -6.773438 5.1875 -6.90625 4.59375 -6.90625 L 2.984375 -6.90625 L 2.984375 -3.9375 L 4.59375 -3.9375 C 5.1875 -3.9375 5.632812 -4.066406 5.9375 -4.328125 C 6.25 -4.585938 6.40625 -4.953125 6.40625 -5.421875 Z M 6.40625 -5.421875 "/></g></g><g style="fill:#ff3131;fill-opacity:1;"><g transform="translate(290.706276, 261.315304)"><path style="stroke:none" d="M 1.015625 -8.515625 L 2.984375 -8.515625 L 2.984375 0 L 1.015625 0 Z M 1.015625 -8.515625 "/></g></g><g style="fill:#ff3131;fill-opacity:1;"><g transform="translate(297.764625, 261.315304)"><path style="stroke:none" d="M 2.78125 -6.90625 L 0.046875 -6.90625 L 0.046875 -8.515625 L 7.46875 -8.515625 L 7.46875 -6.90625 L 4.75 -6.90625 L 4.75 0 L 2.78125 0 Z M 2.78125 -6.90625 "/></g></g><g style="fill:#ff3131;fill-opacity:1;"><g transform="translate(308.350569, 261.315304)"><path style="stroke:none" d="M 5.09375 -3.015625 L 5.09375 0 L 3.125 0 L 3.125 -3.046875 L -0.171875 -8.515625 L 1.921875 -8.515625 L 4.203125 -4.734375 L 6.46875 -8.515625 L 8.40625 -8.515625 Z M 5.09375 -3.015625 "/></g></g></g></svg>